<svg width="60" height="60" viewBox="0 0 60 60" fill="none" xmlns="http://www.w3.org/2000/svg">
<path d="M12.5009 17.5L9.45385 19.5313C7.26958 20.9875 6.17743 21.7156 5.58555 22.826C4.99368 23.9364 4.99808 25.2415 5.00683 27.8515C5.0174 30.9938 5.0466 34.1955 5.12748 37.4353C5.31933 45.1218 5.41528 48.965 8.24128 51.791C11.0673 54.6173 14.9624 54.7145 22.7527 54.9092C27.5993 55.0302 32.4028 55.0302 37.249 54.9092C45.0395 54.7145 48.9345 54.6173 51.7605 51.791C54.5865 48.965 54.6825 45.1218 54.8743 37.4353C54.9553 34.1955 54.9843 30.9938 54.995 27.8515C55.0038 25.2415 55.008 23.9364 54.4163 22.826C53.8243 21.7156 52.7323 20.9875 50.5478 19.5313L47.5008 17.5" stroke="black" stroke-width="3.75" stroke-linejoin="round"/>
<path d="M5 25L22.2826 35.3695C26.0425 37.6255 27.9225 38.7535 30 38.7535C32.0775 38.7535 33.9575 37.6255 37.7175 35.3695L55 25" stroke="black" stroke-width="3.75" stroke-linejoin="round"/>
<path d="M12.5 30V15C12.5 10.286 12.5 7.92892 13.9645 6.46447C15.429 5 17.786 5 22.5 5H37.5001C42.214 5 44.571 5 46.0355 6.46447C47.5 7.92892 47.5001 10.286 47.5001 15V30" stroke="black" stroke-width="3.75"/>
<path d="M25 25H35M25 15H35" stroke="black" stroke-width="3.75" stroke-linecap="round" stroke-linejoin="round"/>
</svg>
