<svg width="383" height="385" viewBox="0 0 383 385" fill="none" xmlns="http://www.w3.org/2000/svg">
<path d="M336.436 284.32C342.836 245.92 349.236 217.12 361.716 180.64L336.436 284.32ZM336.436 284.32C336.102 286.433 335.767 288.574 335.429 290.736C329.629 327.857 322.885 371.016 298.996 381.6L336.436 284.32ZM268.088 51.5027L268.091 51.5041C284.105 57.8826 302.814 60.7622 320.3 63.4536C323.501 63.9463 326.661 64.4328 329.756 64.9332C339.774 66.5528 349.111 68.3179 356.995 70.9096C364.884 73.5027 371.263 76.9058 375.416 81.7645L375.419 81.7675C379.564 86.5387 381.561 92.8001 382.007 100.12C382.453 107.443 381.344 115.79 379.309 124.688C376.164 138.441 370.828 153.428 365.682 167.882C364.166 172.142 362.666 176.355 361.244 180.476L361.243 180.478C348.752 216.991 342.346 245.819 335.943 284.237L335.942 284.241C335.608 286.355 335.273 288.497 334.935 290.658C332.203 308.143 329.268 326.925 324.437 343.016C319.001 361.125 311.213 375.64 298.794 381.142L298.792 381.143C292.665 383.892 285.305 384.418 277.045 383.518C268.787 382.618 259.672 380.298 250.06 377.401C244.613 375.759 239.004 373.93 233.306 372.071C218.933 367.385 203.992 362.513 189.643 359.987L189.642 359.987C169.416 356.455 150.241 357.501 131.601 358.821C130.246 358.917 128.895 359.014 127.546 359.111C110.315 360.352 93.5209 361.562 76.6619 359.344C58.6449 356.952 40.482 350.655 26.4373 341.106C12.3916 331.557 2.51445 318.793 0.933785 303.471C-0.490593 287.949 6.48257 269.665 16.198 251.314C22.6528 239.121 30.2813 226.962 37.4028 215.611C40.9981 209.88 44.4642 204.356 47.5849 199.137C61.8311 175.474 69.1705 158.161 75.8884 142.315C78.0827 137.139 80.2108 132.119 82.4916 127.086C91.7561 106.64 103.58 86.5049 121.174 59.6335C129.975 46.1934 140.193 31.268 151.118 19.7842C162.064 8.27912 173.61 0.34733 185.059 0.659283C190.697 0.895073 196.331 3.18784 202.226 6.78149C208.123 10.3764 214.238 15.2449 220.842 20.5883C221.343 20.9943 221.848 21.403 222.355 21.814C235.185 32.2057 249.849 44.0834 268.088 51.5027Z" fill="white" stroke="black"/>
</svg>
