<svg width="518" height="816" viewBox="0 0 518 816" fill="none" xmlns="http://www.w3.org/2000/svg">
<path d="M509.461 239.493C508.906 236.826 508.351 234.159 507.767 231.268C499.625 195.577 486.097 162.662 467.541 132.246C448.791 101.856 426.289 76.079 399.645 54.9667C373.002 33.8543 344.181 18.7436 312.989 9.66027C281.993 0.550944 250.725 -1.66927 219.321 2.52481C187.917 6.71889 158.327 17.0668 130.612 34.0172C103.092 50.9416 79.2476 73.0859 59.078 100.45C38.9084 127.815 23.7646 158.62 13.8416 192.839C3.72358 227.084 -0.498019 262.37 1.0117 298.946C1.01122 301.916 1.17584 304.635 1.34048 307.354C1.80435 315.287 2.65837 323.168 3.70742 331.023L3.94721 332.819C38.4462 591.136 327.913 815.631 327.913 815.631C327.913 815.631 548.322 523.041 513.823 264.723L513.583 262.928C512.534 255.073 511.095 247.27 509.461 239.493ZM282.024 472.03C261.934 474.713 241.829 472.83 222.099 466.327C202.4 460.049 184.307 449.445 167.88 434.964C151.453 420.482 138.012 403.089 127.332 382.585C116.848 362.056 109.979 340.359 106.862 317.018C103.775 293.902 104.679 270.938 109.438 248.601C114.363 226.014 122.769 205.703 134.79 187.194C146.841 168.909 161.547 154.153 178.878 142.701C196.24 131.473 214.951 124.406 235.236 121.697C255.327 119.013 275.237 120.923 294.936 127.201C314.666 133.703 332.729 144.083 349.156 158.565C365.613 173.271 379.054 190.664 389.733 211.167C400.188 231.472 407.087 253.394 410.174 276.51C413.291 299.851 412.357 322.59 407.627 345.151C402.673 367.514 394.297 388.049 382.246 406.334C370.195 424.619 355.489 439.376 338.157 450.828C320.826 462.279 302.115 469.347 282.024 472.03Z" fill="#4B8458"/>
</svg>
