<svg width="60" height="60" viewBox="0 0 60 60" fill="none" xmlns="http://www.w3.org/2000/svg">
<path d="M9.44405 29.856C7.074 25.7233 5.92962 22.3487 5.2396 18.928C4.21905 13.869 6.55452 8.92703 10.4234 5.77368C12.0586 4.44095 13.9331 4.8963 14.9 6.631L17.0829 10.5473C18.8132 13.6514 19.6783 15.2035 19.5067 16.849C19.3352 18.4945 18.1684 19.8347 15.8349 22.515L9.44405 29.856ZM9.44405 29.856C14.2413 38.2208 21.7696 45.7533 30.144 50.556M30.144 50.556C34.2767 52.926 37.6512 54.0705 41.072 54.7605C46.131 55.781 51.073 53.4455 54.2262 49.5765C55.559 47.9415 55.1037 46.067 53.369 45.1L49.4527 42.917C46.3485 41.1868 44.7965 40.3218 43.151 40.4933C41.5055 40.6648 40.1652 41.8315 37.485 44.165L30.144 50.556Z" stroke="#E8340D" stroke-width="3.75" stroke-linejoin="round"/>
<path d="M35 7.5V14.5M47.3755 12.6269L42.4258 17.5767M52.5 25H45.5" stroke="#E8340D" stroke-width="3.75" stroke-linecap="round"/>
</svg>
