<svg width="46" height="46" viewBox="0 0 46 46" fill="none" xmlns="http://www.w3.org/2000/svg">
<path d="M27.7913 17.2502C27.7913 19.8965 25.646 22.0418 22.9997 22.0418C20.3533 22.0418 18.208 19.8965 18.208 17.2502C18.208 14.6038 20.3533 12.4585 22.9997 12.4585C25.646 12.4585 27.7913 14.6038 27.7913 17.2502Z" stroke="#488458" stroke-width="2.875"/>
<path d="M25.4097 33.5296C24.7632 34.1521 23.8992 34.5002 23.0001 34.5002C22.1008 34.5002 21.2367 34.1521 20.5902 33.5296C14.6704 27.7934 6.73712 21.3854 10.606 12.0823C12.6978 7.05219 17.7191 3.8335 23.0001 3.8335C28.2809 3.8335 33.3021 7.05221 35.394 12.0823C39.258 21.3737 31.3441 27.8131 25.4097 33.5296Z" stroke="#488458" stroke-width="2.875"/>
<path d="M34.5 38.3335C34.5 40.4506 29.3513 42.1668 23 42.1668C16.6487 42.1668 11.5 40.4506 11.5 38.3335" stroke="#488458" stroke-width="2.875" stroke-linecap="round"/>
</svg>
