<svg width="60" height="60" viewBox="0 0 60 60" fill="none" xmlns="http://www.w3.org/2000/svg">
<path d="M29.9635 38.5207L38.067 47.734C41.0693 51.1472 42.5705 52.854 44.1418 52.4385C45.713 52.023 46.252 49.777 47.3295 45.2845L53.3073 20.3647C54.967 13.4458 55.7968 9.98635 53.952 8.28C52.1075 6.57367 48.91 7.84312 42.5153 10.382L12.8469 22.1612C7.73233 24.1918 5.17503 25.2072 5.01268 26.952C4.99605 27.1305 4.99578 27.3102 5.01185 27.4887C5.16885 29.2342 7.72303 30.2582 12.8314 32.3057C15.146 33.2335 16.3033 33.6975 17.133 34.586C17.2263 34.6857 17.316 34.7892 17.402 34.896C18.1665 35.846 18.4927 37.0927 19.1452 39.586L20.3663 44.2525C21.0013 46.6787 21.3187 47.892 22.1502 48.0575C22.9817 48.2227 23.7056 47.2167 25.1535 45.2047L29.9635 38.5207ZM29.9635 38.5207L29.169 37.6927C28.2648 36.7502 27.8128 36.2792 27.8128 35.6937C27.8128 35.1082 28.2648 34.637 29.169 33.6945L38.1015 24.3852" stroke="#0E3AD5" stroke-width="3.75" stroke-linecap="round" stroke-linejoin="round"/>
</svg>
