<svg width="60" height="60" viewBox="0 0 60 60" fill="none" xmlns="http://www.w3.org/2000/svg">
<path d="M30 55C43.807 55 55 43.807 55 30C55 16.1929 43.807 5 30 5C16.1929 5 5 16.1929 5 30C5 33.4473 5.69767 36.7315 6.95955 39.7193C7.65695 41.3703 8.00565 42.196 8.04883 42.82C8.092 43.444 7.90835 44.1303 7.54105 45.503L5 55L14.4969 52.459C15.8697 52.0918 16.5561 51.908 17.18 51.9513C17.804 51.9943 18.6296 52.343 20.2809 53.0405C23.2686 54.3022 26.5527 55 30 55Z" stroke="#488458" stroke-width="3" stroke-linejoin="round"/>
<path d="M21.4704 30.9433L23.6477 28.239C24.5654 27.0992 25.6998 26.0382 25.7888 24.5206C25.811 24.1373 25.5415 22.4164 25.002 18.9746C24.79 17.622 23.5272 17.5 22.4333 17.5C21.0079 17.5 20.2951 17.5 19.5874 17.8233C18.6929 18.2319 17.7745 19.3808 17.5729 20.3433C17.4135 21.1049 17.532 21.6297 17.769 22.6792C18.7756 27.137 21.137 31.5395 24.7987 35.2012C28.4605 38.863 32.863 41.2245 37.3207 42.231C38.3702 42.468 38.895 42.5865 39.6568 42.427C40.6193 42.2255 41.768 41.3073 42.1768 40.4125C42.5 39.7048 42.5 38.9923 42.5 37.5668C42.5 36.4728 42.378 35.21 41.0253 34.998C37.5835 34.4585 35.8627 34.189 35.4792 34.2112C33.9617 34.3002 32.9008 35.4345 31.761 36.3523L29.0567 38.5295" stroke="#488458" stroke-width="3"/>
</svg>
